<svg width="151" height="32" viewBox="0 0 151 32" fill="none" xmlns="http://www.w3.org/2000/svg">
<path d="M14 4.33333V27.6667M22.2496 7.75042L5.7504 24.2496M25.6666 16H2.33331M22.2496 24.2496L5.7504 7.75042" stroke="#3D8D63" stroke-width="2.5" stroke-linecap="round" stroke-linejoin="round"/>
<path d="M34.4609 25V6.67969H42.0352C42.8919 6.67969 43.7305 6.83464 44.5508 7.14453C45.3711 7.45443 46.1094 7.91016 46.7656 8.51172C47.4401 9.09505 47.9688 9.8151 48.3516 10.6719C48.7526 11.5104 48.9531 12.4766 48.9531 13.5703C48.9531 14.901 48.6341 16.0677 47.9961 17.0703C47.3763 18.0547 46.5469 18.8294 45.5078 19.3945C44.4688 19.9414 43.3385 20.2148 42.1172 20.2148C41.1328 20.2148 40.276 20.1237 39.5469 19.9414C38.8177 19.7591 38.2344 19.5312 37.7969 19.2578V16.1406C38.1979 16.3411 38.7266 16.5326 39.3828 16.7148C40.0573 16.8789 40.7591 16.9609 41.4883 16.9609C42.582 16.9609 43.4479 16.6602 44.0859 16.0586C44.7422 15.4388 45.0703 14.6094 45.0703 13.5703C45.0703 12.8229 44.8971 12.2122 44.5508 11.7383C44.2227 11.2461 43.776 10.8724 43.2109 10.6172C42.6641 10.362 42.0625 10.2344 41.4062 10.2344H38.2617V25H34.4609ZM56.2823 25.4102C55.1886 25.4102 54.1678 25.1276 53.2198 24.5625C52.2902 23.9974 51.5336 23.1771 50.9503 22.1016C50.3852 21.026 50.1027 19.7227 50.1027 18.1914C50.1027 16.6419 50.3852 15.3203 50.9503 14.2266C51.5336 13.1328 52.3084 12.2943 53.2745 11.7109C54.2589 11.1276 55.3435 10.8359 56.5284 10.8359C57.2941 10.8359 58.0506 11.0091 58.798 11.3555C59.5636 11.7018 60.2016 12.1667 60.712 12.75V11.1914H64.1847V25H60.712V22.6758C60.311 23.4232 59.7277 24.0703 58.962 24.6172C58.1964 25.1458 57.3032 25.4102 56.2823 25.4102ZM57.1573 21.9375C57.7771 21.9375 58.3514 21.7734 58.88 21.4453C59.4269 21.1172 59.8735 20.6523 60.2198 20.0508C60.5662 19.4492 60.7303 18.7383 60.712 17.918V15.9492C60.2198 15.4206 59.6821 15.0013 59.0987 14.6914C58.5336 14.3815 57.9139 14.2266 57.2394 14.2266C56.5102 14.2266 55.8813 14.418 55.3527 14.8008C54.8422 15.1654 54.4412 15.6484 54.1495 16.25C53.8579 16.8516 53.712 17.4987 53.712 18.1914C53.712 18.8659 53.8579 19.4948 54.1495 20.0781C54.4412 20.6432 54.8422 21.099 55.3527 21.4453C55.8813 21.7734 56.4829 21.9375 57.1573 21.9375ZM67.3303 25V11.1914H70.803V25H67.3303ZM70.803 17.2891V13.7891C71.2769 12.9688 71.8329 12.2852 72.4709 11.7383C73.1272 11.1914 73.8655 10.918 74.6858 10.918C75.1962 10.918 75.6428 11 76.0256 11.1641V15.0742C75.7522 14.9102 75.4605 14.7917 75.1506 14.7188C74.859 14.6276 74.5399 14.582 74.1936 14.582C73.4097 14.582 72.7444 14.8464 72.1975 15.375C71.6689 15.8854 71.204 16.5234 70.803 17.2891ZM80.4017 21.7461V17.7812L86.6908 11.1914H90.9017L80.4017 21.7461ZM77.5853 25V5.3125H81.058V25H77.5853ZM86.8275 25L82.015 18.4648L84.2025 16.0859L91.2025 25H86.8275ZM105.122 25V6.67969H108.895V25H105.122ZM92.8169 25V6.67969H96.6177V25H92.8169ZM96.1528 17.5625V14.1445H105.887V17.5625H96.1528ZM118.959 25.4102C117.938 25.4102 116.981 25.237 116.088 24.8906C115.194 24.526 114.401 24.0247 113.709 23.3867C113.034 22.7487 112.505 21.9922 112.123 21.1172C111.74 20.2422 111.548 19.2852 111.548 18.2461C111.548 16.8971 111.849 15.6667 112.451 14.5547C113.052 13.4245 113.882 12.5221 114.939 11.8477C115.996 11.1732 117.199 10.8359 118.548 10.8359C119.897 10.8359 121.055 11.1276 122.021 11.7109C123.005 12.2943 123.753 13.1055 124.263 14.1445C124.792 15.1654 125.056 16.3503 125.056 17.6992V19.1758H114.748V16.7969H121.72C121.684 16.1224 121.502 15.5755 121.173 15.1562C120.845 14.7188 120.444 14.3997 119.97 14.1992C119.496 13.9805 118.995 13.8711 118.466 13.8711C117.755 13.8711 117.136 14.0534 116.607 14.418C116.097 14.7826 115.696 15.293 115.404 15.9492C115.112 16.6055 114.966 17.3711 114.966 18.2461C114.966 19.0299 115.14 19.7227 115.486 20.3242C115.832 20.9258 116.315 21.3997 116.935 21.7461C117.573 22.0924 118.293 22.2656 119.095 22.2656C120.116 22.2656 121.028 22.0651 121.83 21.6641C122.65 21.263 123.297 20.8529 123.771 20.4336V23.6602C123.498 23.9154 123.115 24.1797 122.623 24.4531C122.13 24.7266 121.565 24.9544 120.927 25.1367C120.308 25.319 119.651 25.4102 118.959 25.4102ZM127.108 25V11.1914H130.581V25H127.108ZM130.581 17.2891V13.7891C131.055 12.9688 131.611 12.2852 132.249 11.7383C132.905 11.1914 133.643 10.918 134.464 10.918C134.974 10.918 135.421 11 135.803 11.1641V15.0742C135.53 14.9102 135.238 14.7917 134.928 14.7188C134.637 14.6276 134.318 14.582 133.971 14.582C133.188 14.582 132.522 14.8464 131.975 15.375C131.447 15.8854 130.982 16.5234 130.581 17.2891ZM143.816 25.4102C142.795 25.4102 141.838 25.237 140.945 24.8906C140.052 24.526 139.259 24.0247 138.566 23.3867C137.892 22.7487 137.363 21.9922 136.98 21.1172C136.598 20.2422 136.406 19.2852 136.406 18.2461C136.406 16.8971 136.707 15.6667 137.308 14.5547C137.91 13.4245 138.739 12.5221 139.797 11.8477C140.854 11.1732 142.057 10.8359 143.406 10.8359C144.755 10.8359 145.913 11.1276 146.879 11.7109C147.863 12.2943 148.611 13.1055 149.121 14.1445C149.65 15.1654 149.914 16.3503 149.914 17.6992V19.1758H139.605V16.7969H146.578C146.542 16.1224 146.359 15.5755 146.031 15.1562C145.703 14.7188 145.302 14.3997 144.828 14.1992C144.354 13.9805 143.853 13.8711 143.324 13.8711C142.613 13.8711 141.993 14.0534 141.465 14.418C140.954 14.7826 140.553 15.293 140.262 15.9492C139.97 16.6055 139.824 17.3711 139.824 18.2461C139.824 19.0299 139.997 19.7227 140.344 20.3242C140.69 20.9258 141.173 21.3997 141.793 21.7461C142.431 22.0924 143.151 22.2656 143.953 22.2656C144.974 22.2656 145.885 22.0651 146.687 21.6641C147.508 21.263 148.155 20.8529 148.629 20.4336V23.6602C148.355 23.9154 147.973 24.1797 147.48 24.4531C146.988 24.7266 146.423 24.9544 145.785 25.1367C145.165 25.319 144.509 25.4102 143.816 25.4102Z" fill="#3D8D63"/>
</svg>
